<svg xmlns="http://www.w3.org/2000/svg" viewBox="0 0 512 512" width="512" height="512">
  <!-- Home-screen icon source; the PNGs beside it are rendered from this file. -->
  <defs>
    <linearGradient id="hall" x1="0" y1="0" x2="0" y2="1">
      <stop offset="0" stop-color="#2a3570"/>
      <stop offset=".7" stop-color="#121733"/>
      <stop offset="1" stop-color="#0a0d18"/>
    </linearGradient>
    <linearGradient id="beam" x1="0" y1="0" x2="0" y2="1">
      <stop offset="0" stop-color="#fff6d8" stop-opacity=".42"/>
      <stop offset="1" stop-color="#fff6d8" stop-opacity="0"/>
    </linearGradient>
    <linearGradient id="steel" x1="0" y1="0" x2="1" y2="0">
      <stop offset="0" stop-color="#f6f8ff"/>
      <stop offset=".5" stop-color="#a9b4d4"/>
      <stop offset="1" stop-color="#e4e9f8"/>
    </linearGradient>
    <linearGradient id="gilt" x1="0" y1="0" x2="0" y2="1">
      <stop offset="0" stop-color="#ffe7a8"/>
      <stop offset="1" stop-color="#b8862a"/>
    </linearGradient>
    <linearGradient id="stone" x1="0" y1="0" x2="0" y2="1">
      <stop offset="0" stop-color="#d9cfb7"/>
      <stop offset="1" stop-color="#8f846c"/>
    </linearGradient>
    <radialGradient id="aura" cx="50%" cy="50%" r="50%">
      <stop offset="0" stop-color="#cfe0ff" stop-opacity=".55"/>
      <stop offset="1" stop-color="#cfe0ff" stop-opacity="0"/>
    </radialGradient>
  </defs>
  <rect width="512" height="512" fill="url(#hall)"/>
  <polygon points="214,0 298,0 400,512 112,512" fill="url(#beam)"/>
  <polygon points="236,0 276,0 330,512 182,512" fill="url(#beam)"/>
  <circle cx="256" cy="200" r="150" fill="url(#aura)"/>
  <g id="art">
    <path d="M120 470 L148 418 H364 L392 470Z" fill="url(#stone)"/>
    <rect x="164" y="372" width="184" height="48" rx="6" fill="url(#stone)"/>
    <rect x="164" y="372" width="184" height="8" rx="4" fill="#efe7d3" opacity=".7"/>
    <rect x="190" y="398" width="132" height="4" rx="2" fill="url(#gilt)"/>
    <polygon points="239,214 273,214 268,376 244,376" fill="url(#steel)"/>
    <rect x="254.5" y="222" width="3" height="146" fill="#7d88aa" opacity=".6"/>
    <path d="M256 194 C226 194 192 186 166 156 C181 204 220 220 256 224 C292 220 331 204 346 156 C320 186 286 194 256 194Z" fill="#2f5fc4" stroke="#9db8ff" stroke-width="3"/>
    <polygon points="256,197 267,209 256,221 245,209" fill="url(#gilt)"/>
    <rect x="245" y="116" width="22" height="80" rx="5" fill="#24357e"/>
    <g stroke="#5a77d0" stroke-width="3.5">
      <line x1="245" y1="133" x2="267" y2="124"/><line x1="245" y1="149" x2="267" y2="140"/>
      <line x1="245" y1="165" x2="267" y2="156"/><line x1="245" y1="181" x2="267" y2="172"/>
    </g>
    <path d="M256 76 L277 99 L256 122 L235 99Z" fill="url(#gilt)"/>
  </g>
</svg>
